<svg width="40" height="50" viewBox="0 0 40 50" fill="none" xmlns="http://www.w3.org/2000/svg">
<path d="M32.5628 1.7536C32.5632 1.7801 32.5599 1.8066 32.5601 1.8331C32.5604 1.853 32.5618 1.87428 32.562 1.8939L32.5628 1.7536Z" fill="#4A8B71"/>
<path d="M39.9394 45.3761C39.8304 44.5676 39.5446 43.7899 39.1005 43.0932C38.802 42.6526 38.425 42.2652 37.9865 41.9483C37.4047 41.5385 36.7651 41.209 36.0867 40.9695C35.7466 40.8457 35.3962 40.7494 35.0392 40.6814C34.6723 40.6012 34.2992 40.5497 33.9235 40.5275C33.8491 40.5255 33.7752 40.5254 33.7019 40.5272C33.7032 40.4582 33.7022 40.389 33.6977 40.319C33.6659 39.7412 33.4842 39.18 33.1688 38.6856C33.0068 38.4339 32.8244 38.1946 32.6233 37.97C32.3714 37.6596 32.0668 37.3915 31.7222 37.1768C31.4309 37.0146 31.1246 36.8783 30.8072 36.7694C30.4444 36.6284 30.0632 36.535 29.6741 36.492C29.6882 36.4411 29.7016 36.3897 29.7143 36.3379C29.7908 36.0228 29.8416 35.7024 29.8661 35.3798C29.8843 34.9935 29.8259 34.6075 29.6938 34.2419C29.4622 33.5781 29.0565 32.9817 28.5152 32.5093C28.2218 32.2451 27.9071 32.0033 27.574 31.7861C27.2273 31.571 26.8409 31.4205 26.4353 31.3426C26.0611 31.2564 25.6733 31.2369 25.2916 31.285C25.0133 31.3305 24.7403 31.4012 24.4762 31.4962C24.3326 30.9051 24.0931 30.339 23.7661 29.8183L23.7805 29.8403L23.7607 29.8093C23.7419 29.7785 23.7233 29.7478 23.7044 29.7172C23.7172 29.7388 23.7301 29.7606 23.7435 29.7823C23.4882 29.3754 23.1542 29.0183 22.7592 28.7301C22.7288 28.7092 22.6932 28.6962 22.6624 28.6758C22.726 28.5755 22.7695 28.4648 22.7906 28.3493C22.8438 28.003 22.8589 27.6523 22.8356 27.303C22.7536 26.1232 22.3649 24.9814 21.7045 23.9804C21.3329 23.3628 20.8709 22.7988 20.3324 22.3054C20.085 22.0821 19.8285 21.8647 19.5627 21.6618C19.273 21.4405 18.9673 21.2392 18.6705 21.0277C18.6264 20.995 18.581 20.9622 18.5357 20.9295C18.5724 20.9588 18.6121 20.9854 18.6488 21.0147C18.2709 20.7364 17.8953 20.4558 17.5177 20.1772C17.2664 19.9927 17.0135 19.8064 16.7784 19.6002C16.4877 19.3186 16.2128 19.0225 15.9549 18.7131C15.8963 18.6382 15.842 18.5618 15.7896 18.4839C15.7148 18.3533 15.6482 18.2185 15.5861 18.0817C15.4879 17.8672 15.4011 17.6482 15.3261 17.4254C15.289 17.289 15.2578 17.1508 15.2334 17.0093C15.2377 17.0378 15.2413 17.0662 15.2449 17.0946C15.2398 17.0595 15.2348 17.0243 15.2301 16.989L15.2241 16.9543L15.2288 16.9802C15.1899 16.6963 15.1623 16.4107 15.1511 16.1251C15.1529 15.9553 15.1647 15.7872 15.1841 15.6192C15.2266 15.333 15.2808 15.0472 15.3503 14.7654C15.4047 14.582 15.4688 14.4012 15.5422 14.2239C15.701 13.8739 15.8785 13.5318 16.074 13.1992C16.1087 13.146 16.1447 13.0942 16.1819 13.042C16.271 12.9398 16.3667 12.8426 16.463 12.7461C16.7614 12.8842 17.0692 13.0029 17.3844 13.1015C17.6416 13.1904 17.9019 13.2675 18.1652 13.333C19.0005 13.5509 19.8629 13.6599 20.729 13.657C21.0909 13.6586 21.453 13.6474 21.8136 13.6354C22.3478 13.628 22.8808 13.5855 23.4089 13.5079C23.8953 13.4308 24.3771 13.3285 24.8519 13.2015C25.8336 12.9272 26.7736 12.5323 27.6485 12.0269C28.6131 11.4704 29.467 10.7557 30.1706 9.91594C30.5045 9.50375 30.7971 9.06271 31.0448 8.59855C31.3322 8.09937 31.5807 7.5807 31.7883 7.04675C32.1304 6.06365 32.3474 5.04496 32.4348 4.01256C32.5157 3.28858 32.5576 2.56112 32.5601 1.83305C32.5855 1.40666 32.5019 0.980762 32.3164 0.59202C32.1702 0.331087 31.9215 0.135924 31.6248 0.0491916C31.3281 -0.0375407 31.0074 -0.00878786 30.7329 0.129166C30.4788 0.277069 30.265 0.480114 30.109 0.721739C30.0605 0.778146 30.0089 0.832143 29.9566 0.88577C29.8489 0.98653 29.7368 1.08398 29.62 1.176C29.5375 1.2357 29.4529 1.29169 29.3652 1.34332C29.3859 1.3318 29.4063 1.32054 29.4269 1.31011L29.3633 1.34458C29.3446 1.35542 29.3259 1.36637 29.3068 1.37689L29.3622 1.34499C29.2511 1.40402 29.1362 1.45891 29.0207 1.50991C28.8754 1.56883 28.7267 1.61995 28.5754 1.66304C28.4 1.70756 28.2223 1.74531 28.0424 1.77631C27.8701 1.7973 27.6968 1.8095 27.5232 1.81286C26.9571 1.80369 26.3937 1.73263 25.8274 1.69199C23.9175 1.54726 21.9964 1.76436 20.175 2.33075C19.668 2.48164 19.1788 2.6823 18.7153 2.9295C18.2426 3.19117 17.7911 3.48621 17.3646 3.81216C16.9096 4.15263 16.4935 4.53779 16.1231 4.96128C15.8148 5.34063 15.5387 5.74274 15.2973 6.16381C15.3088 6.14408 15.3203 6.1238 15.3324 6.10369C15.0526 6.54285 14.8028 6.99882 14.5847 7.46874C14.3377 8.10343 14.1995 8.77189 14.1755 9.44845C14.1463 9.95838 14.1726 10.4698 14.254 10.9746C14.2966 11.2236 14.3609 11.4688 14.4462 11.7077C14.4143 11.7452 14.3775 11.7789 14.3471 11.8175C14.0777 12.186 13.8526 12.5821 13.676 12.9985C13.5075 13.345 13.3604 13.7006 13.2354 14.0635C13.0211 14.7328 12.9123 15.4288 12.9126 16.1287C12.8836 17.551 13.3444 18.9432 14.2246 20.0922C15.3557 21.3054 16.6473 22.3735 18.067 23.2697C18.3702 23.4912 18.6603 23.7284 18.9361 23.9804C19.0632 24.1098 19.1829 24.2448 19.2996 24.3842C19.454 24.5795 19.6016 24.7786 19.7356 24.9875C19.9285 25.3007 20.1026 25.6241 20.2573 25.956C20.3407 26.1547 20.414 26.3556 20.4781 26.5612C20.5293 26.7454 20.5703 26.9319 20.601 27.1202C20.6231 27.2835 20.6349 27.4467 20.641 27.6099C20.6404 27.6879 20.6362 27.7659 20.6341 27.8439C20.4412 27.8059 20.2454 27.7829 20.0486 27.775C19.6557 27.7599 19.2637 27.8229 18.8977 27.96C18.6584 28.0558 18.4314 28.1774 18.2211 28.3224C17.7259 28.633 17.2895 29.0215 16.9306 29.4712C16.6071 29.9124 16.3324 30.3844 16.111 30.8796C15.8767 31.3608 15.7093 31.8691 15.613 32.3915C15.6003 32.4683 15.6063 32.5424 15.5978 32.6184C15.5717 32.6137 15.5468 32.6054 15.5205 32.601C15.1673 32.5323 14.8081 32.4955 14.4476 32.4911C13.9151 32.5262 13.3938 32.6537 12.9093 32.8673C12.5099 33.0066 12.1259 33.1831 11.7628 33.3943C11.3848 33.6673 11.0577 33.9988 10.795 34.3752C10.562 34.6441 10.3706 34.9435 10.2265 35.2641C10.0805 35.6441 9.99789 36.0436 9.98171 36.4479C9.77586 36.3846 9.56466 36.3383 9.35046 36.3096C8.98228 36.2679 8.61028 36.2669 8.24186 36.3066C7.70224 36.3697 7.17957 36.5276 6.70037 36.7723C6.17613 37.049 5.7304 37.4431 5.40164 37.9205C5.05405 38.4519 4.82575 39.0461 4.73115 39.6657C4.66831 40.0119 4.64897 40.364 4.67353 40.7146C4.70608 41.0532 4.7603 41.3895 4.83591 41.7218C3.91991 41.7731 3.05502 42.1411 2.40333 42.7568C2.05346 43.0827 1.73556 43.4384 1.45359 43.8195C1.11432 44.2388 0.827785 44.6945 0.599835 45.1774C0.444122 45.514 0.309534 45.8591 0.196784 46.2109C0.080092 46.577 0.0141449 46.956 0.000620414 47.3384C-0.00265931 47.5464 0.00706652 47.7543 0.0297452 47.9612C0.0509399 48.111 0.0817122 48.2595 0.12189 48.4058C0.193193 48.6148 0.332725 48.7966 0.520117 48.9247C0.70751 49.0527 0.93295 49.1203 1.16352 49.1177C1.22857 49.118 1.29351 49.1125 1.35745 49.1011C1.61579 49.0541 1.84766 48.9198 2.01035 48.7229C2.17304 48.5259 2.2556 48.2796 2.24284 48.0292C2.22158 47.8212 2.20536 47.6181 2.20355 47.4111C2.20839 47.3145 2.21443 47.2172 2.22509 47.1208C2.24136 47.0408 2.262 46.9617 2.28477 46.8839C2.3816 46.5849 2.49568 46.2913 2.62649 46.0044C2.7098 45.8399 2.80574 45.6794 2.90503 45.5211C3.03562 45.3199 3.17711 45.1253 3.32891 44.9382C3.48983 44.738 3.66156 44.5459 3.8434 44.3627C3.9167 44.2964 3.99319 44.2336 4.07287 44.1743C4.16771 44.1084 4.26695 44.0466 4.36844 43.989C4.41372 43.9662 4.45943 43.9441 4.50609 43.9233C4.55076 43.909 4.59582 43.896 4.64093 43.8839C4.69643 43.8723 4.75215 43.8625 4.80826 43.8545C4.8671 43.8496 4.92585 43.8477 4.98454 43.8471C5.08564 43.8521 5.18631 43.861 5.28571 43.874C5.36457 43.8875 5.44364 43.9049 5.52133 43.9247C5.58616 43.9438 5.65046 43.9652 5.71294 43.9895C5.87712 44.0723 6.04926 44.1398 6.22701 44.1911C6.47997 44.2473 6.7453 44.2224 6.98197 44.1204C7.21864 44.0184 7.41345 43.845 7.53629 43.6269C7.87949 43.0496 7.47402 42.5334 7.25263 42.0151C7.27078 42.059 7.28896 42.1 7.30725 42.1439C7.27077 42.059 7.23439 41.9712 7.19494 41.8862C7.21631 41.9302 7.23434 41.9741 7.25263 42.0151C7.18991 41.8686 7.13567 41.719 7.09015 41.5668C7.0057 41.2296 6.9402 40.8884 6.89393 40.5446C6.89063 40.5026 6.8886 40.4607 6.88756 40.4189C6.89366 40.2485 6.91355 40.0801 6.9369 39.9119C6.95608 39.8012 6.9779 39.6917 7.00565 39.5825C7.02856 39.5185 7.05406 39.4563 7.08143 39.3938C7.12862 39.2991 7.17967 39.2068 7.23478 39.1161C7.25841 39.0807 7.28292 39.0462 7.30831 39.0126C7.35891 38.9557 7.41199 38.9009 7.46788 38.8474C7.5314 38.7925 7.59618 38.7395 7.66361 38.6886C7.69515 38.668 7.72726 38.6482 7.75994 38.6294C7.82648 38.5965 7.89489 38.565 7.96401 38.5358C8.03964 38.5086 8.11622 38.4837 8.19321 38.4615C8.2959 38.4375 8.39883 38.4201 8.50313 38.4053C8.58478 38.3993 8.66643 38.396 8.74688 38.3964C8.88365 38.4018 9.01986 38.4139 9.15504 38.4307C9.19376 38.4378 9.23236 38.4456 9.27103 38.4543C9.38045 38.4887 9.48737 38.5288 9.59238 38.5698C9.76614 38.6462 9.93499 38.7277 10.1009 38.8165C10.2767 38.9203 10.4579 39.0223 10.6231 39.1381C10.7178 39.2143 10.8186 39.2834 10.9245 39.3448C11.1005 39.4334 11.2979 39.476 11.4968 39.4681C11.6957 39.4603 11.8888 39.4022 12.0564 39.3C12.2574 39.1728 12.4112 38.9885 12.496 38.7732C12.5807 38.5579 12.5921 38.3226 12.5285 38.1008C12.4402 37.7749 12.3306 37.4541 12.2399 37.129C12.2233 37.0604 12.2085 36.9921 12.1973 36.9224C12.1915 36.8608 12.1883 36.7997 12.1867 36.739C12.1915 36.6153 12.2032 36.4917 12.2189 36.3682C12.2365 36.2575 12.26 36.1469 12.2892 36.0378L12.3077 35.9838C12.3218 35.9569 12.337 35.9301 12.3526 35.9034C12.4229 35.8026 12.4995 35.7058 12.5785 35.6099C12.7142 35.4504 12.8507 35.2895 12.9975 35.1409L13.0247 35.119L13.0387 35.1106C13.2064 35.0262 13.3786 34.9512 13.555 34.8806C13.8078 34.7854 14.061 34.6961 14.3187 34.6234C14.3691 34.6129 14.4199 34.6035 14.4718 34.5951L14.5006 34.5941C14.6554 34.6031 14.8096 34.6204 14.9618 34.6419C15.1258 34.6666 15.2901 34.6947 15.4504 34.7334C15.5727 34.7713 15.6928 34.8151 15.8103 34.8647L15.7856 34.8531C15.8983 34.9016 16.0105 34.9505 16.1204 35.0058L16.1372 35.0164C16.19 35.0611 16.242 35.1075 16.2969 35.1496C16.3919 35.2527 16.5074 35.3368 16.6368 35.3969C16.7662 35.4571 16.9068 35.4922 17.0505 35.5002C17.1942 35.5082 17.3382 35.4889 17.474 35.4434C17.6098 35.3979 17.7348 35.3272 17.8417 35.2353C17.9486 35.1434 18.0353 35.0322 18.0968 34.9081C18.1582 34.784 18.1932 34.6495 18.1997 34.5125C18.2061 34.3754 18.184 34.2385 18.1345 34.1096C18.085 33.9808 18.0091 33.8626 17.9113 33.7619L17.8891 33.7308L17.88 33.7133C17.8662 33.6801 17.8534 33.6463 17.8414 33.6115C17.8097 33.4879 17.7848 33.362 17.7638 33.2357C17.7578 33.1826 17.7533 33.1294 17.7503 33.0762C17.7544 32.9926 17.7606 32.9097 17.7692 32.8262C17.7934 32.6917 17.82 32.5585 17.8527 32.4257C17.8978 32.288 17.9478 32.152 18.0002 32.0161C18.1215 31.7463 18.2589 31.4827 18.405 31.2248C18.5295 31.0139 18.6657 30.8095 18.813 30.6123C18.8475 30.5729 18.882 30.534 18.9177 30.4946C18.9896 30.4299 19.0633 30.3678 19.1389 30.3082C19.3083 30.182 19.4822 30.0605 19.6631 29.9495L19.7078 29.9275C19.7444 29.9146 19.7808 29.902 19.8182 29.8902L19.8223 29.8892L19.8545 29.887C19.9434 29.8906 20.0318 29.897 20.1208 29.906C20.241 29.9247 20.3609 29.9479 20.4794 29.9752C20.5622 29.9999 20.645 30.026 20.7277 30.0534C20.878 30.1177 21.025 30.1873 21.1716 30.2606C21.2928 30.33 21.409 30.4021 21.5231 30.4808C21.5493 30.5011 21.5749 30.5215 21.6004 30.5427C21.641 30.5856 21.6807 30.6287 21.72 30.6716C21.752 30.7141 21.7822 30.7576 21.8111 30.8017C21.9408 31.0171 22.059 31.2387 22.165 31.4657C22.2087 31.5723 22.2488 31.6807 22.284 31.7906C22.3067 31.8802 22.3256 31.9689 22.3396 32.0584C22.3163 32.5633 22.4031 33.0673 22.5943 33.5386C22.6795 33.6923 22.7988 33.8263 22.944 33.9315C23.0892 34.0366 23.2567 34.1103 23.4348 34.1474C23.6121 34.172 23.7929 34.1626 23.9663 34.1197C24.1398 34.0767 24.3025 34.0011 24.4449 33.8974C24.572 33.8211 24.6987 33.7379 24.8256 33.6598C24.898 33.6228 24.9721 33.5881 25.0466 33.5564C25.1835 33.505 25.321 33.4587 25.4636 33.4177C25.5311 33.4018 25.5985 33.3875 25.667 33.3758L25.6791 33.3753C25.7328 33.377 25.7865 33.3802 25.8402 33.3848C25.9059 33.396 25.9721 33.4086 26.0378 33.423C26.0993 33.4391 26.1601 33.4579 26.2216 33.4783L26.2285 33.4813C26.2948 33.5206 26.3588 33.5622 26.4229 33.6047C26.6306 33.7522 26.8301 33.9101 27.0204 34.0778C27.0834 34.1366 27.1444 34.1961 27.2026 34.2579C27.2678 34.3417 27.3303 34.4277 27.3882 34.5159C27.4351 34.5989 27.4799 34.6834 27.5199 34.7695C27.5464 34.8378 27.57 34.9068 27.5919 34.978C27.6009 35.0174 27.6096 35.0568 27.6173 35.0962C27.6203 35.1254 27.6222 35.1547 27.6234 35.1839C27.6182 35.3075 27.607 35.4309 27.5921 35.5528C27.5708 35.6816 27.5431 35.8101 27.5098 35.9371C27.4693 36.0688 27.4241 36.1991 27.3739 36.3291C27.1221 36.7126 26.9728 37.149 26.939 37.6002C26.9569 37.8909 27.0856 38.1653 27.301 38.3719C27.5163 38.5785 27.8034 38.7029 28.1083 38.7219C28.3705 38.7272 28.6323 38.7022 28.8882 38.6474C29.0597 38.6245 29.2325 38.6107 29.4057 38.606L29.4387 38.6079C29.4973 38.6178 29.5549 38.6292 29.6126 38.6411C29.804 38.6921 29.9951 38.753 30.1828 38.8199C30.286 38.8612 30.3866 38.9065 30.4852 38.9549C30.508 38.9681 30.5304 38.9823 30.5525 38.9967C30.5749 39.0147 30.5967 39.0332 30.6183 39.0522C30.7772 39.2087 30.9335 39.3699 31.0795 39.5407C31.1468 39.626 31.2114 39.7137 31.2729 39.803C31.2814 39.8181 31.2893 39.8331 31.2973 39.8484C31.3386 39.9478 31.3759 40.0485 31.4077 40.1504C31.4219 40.2055 31.4344 40.2609 31.4453 40.317C31.4484 40.3515 31.4503 40.3862 31.451 40.4213C31.4488 40.5204 31.4462 40.6194 31.4358 40.717C31.4199 40.8227 31.4061 40.9287 31.3929 41.0358C31.3352 41.2692 31.3303 41.5116 31.3785 41.747C31.4505 42.0802 31.6531 42.3748 31.9449 42.5708C32.3739 42.7747 32.8677 42.8174 33.3283 42.6906C33.4482 42.6751 33.5682 42.6631 33.6881 42.6579C33.7879 42.6599 33.8878 42.6671 33.9874 42.6766C34.2906 42.719 34.5919 42.7698 34.891 42.8361C35.0315 42.8729 35.1681 42.9188 35.3024 42.9679L35.2522 42.9478L35.3074 42.9697L35.3838 42.998C35.3634 42.991 35.3423 42.9833 35.3212 42.9752C35.6212 43.0945 35.9166 43.2216 36.2049 43.3675C36.2971 43.4167 36.3864 43.4706 36.4725 43.529C36.6017 43.6233 36.7246 43.7236 36.8439 43.8286C36.943 43.9216 37.037 44.0182 37.1257 44.1192C37.1624 44.1677 37.198 44.2166 37.2324 44.2661C37.3149 44.4053 37.3904 44.5465 37.4608 44.6921C37.5221 44.8319 37.5757 44.9747 37.6212 45.1199C37.6707 45.2985 37.7127 45.4775 37.744 45.661C37.7578 45.7718 37.767 45.8844 37.7699 45.997C37.7673 46.148 37.76 46.2988 37.7433 46.4498C37.7129 46.6335 37.673 46.8153 37.6255 46.9954C37.6097 47.0448 37.5925 47.0935 37.5739 47.1414C37.5412 47.217 37.5079 47.2922 37.4728 47.3654C37.3504 47.6174 37.3361 47.905 37.4328 48.1669C37.5295 48.4288 37.7296 48.6444 37.9905 48.7679C38.1372 48.8332 38.2972 48.8671 38.4591 48.867C38.6446 48.8725 38.8283 48.8314 38.9919 48.7478C39.1554 48.6643 39.293 48.5413 39.3909 48.391C39.674 47.9134 39.8577 47.3882 39.932 46.8442C39.9716 46.6015 39.9943 46.3565 40 46.1108C39.9971 45.8649 39.9769 45.6195 39.9394 45.3761ZM16.6998 8.12364C16.6813 8.16726 16.6626 8.21094 16.6442 8.25168L16.6453 8.24834C16.6632 8.20649 16.6812 8.16468 16.6998 8.12364ZM16.3905 9.33256C16.4267 9.08802 16.4684 8.84248 16.5272 8.59995C16.563 8.48175 16.6014 8.36538 16.6442 8.25168C16.7611 8.00617 16.8922 7.77182 17.0322 7.53787C17.2843 7.1365 17.5407 6.74069 17.8286 6.36299C17.9395 6.23138 18.0557 6.10491 18.1748 5.9812L18.2175 5.94036C18.3934 5.77819 18.5758 5.62592 18.7647 5.47855C19.0765 5.25168 19.3969 5.03335 19.731 4.83588C19.914 4.73853 20.1002 4.65096 20.2895 4.56903C20.6102 4.4447 20.9361 4.33535 21.2673 4.24099C21.7423 4.11197 22.2239 4.00599 22.7102 3.92346C22.6809 3.92749 22.6508 3.931 22.6208 3.93446L22.7259 3.92089L22.7651 3.91461L22.7357 3.91969C23.3327 3.84342 23.9339 3.80044 24.5361 3.79099C24.6187 3.79167 24.7012 3.79261 24.7837 3.79486C26.0528 3.94403 27.3352 3.96041 28.608 3.84372C29.1913 3.7353 29.754 3.54319 30.2769 3.27393C30.2523 3.53803 30.2231 3.80151 30.191 4.06333C30.1181 4.61884 30.015 5.17038 29.8821 5.71572L29.864 5.78051C29.7755 6.06498 29.6731 6.34562 29.5568 6.62242C29.3433 7.08317 29.1049 7.53305 28.8425 7.97028C28.7236 8.15713 28.5976 8.3408 28.4628 8.51604C28.2842 8.72515 28.0893 8.92211 27.8916 9.11647C27.6634 9.32658 27.4236 9.52396 27.179 9.71632C26.9313 9.89349 26.6731 10.0569 26.4057 10.2059C26.0784 10.3838 25.7481 10.5558 25.405 10.7033L25.4622 10.6816L25.4039 10.704C25.3783 10.7149 25.3526 10.7258 25.3269 10.7364C25.3485 10.7262 25.3712 10.7167 25.394 10.7076C24.9815 10.8664 24.566 11.0059 24.1408 11.1281C23.7217 11.2327 23.2955 11.316 22.8665 11.3842C22.3275 11.4446 21.7855 11.4772 21.2428 11.4818C20.7455 11.4918 20.248 11.4751 19.7526 11.4318C19.3784 11.3849 19.0076 11.3164 18.642 11.2269L18.6294 11.2229C18.7154 11.1748 18.8014 11.1258 18.8869 11.0774C18.8469 11.1006 18.8038 11.1237 18.7638 11.1469C19.7203 10.6133 20.6736 10.0679 21.5721 9.44929C22.0751 9.10515 22.5534 8.72932 23.0037 8.32431C23.2994 8.0567 23.5524 7.75085 23.839 7.47439L23.7404 7.56751C23.8201 7.49282 23.8945 7.41307 23.9629 7.3288C24.1011 7.13331 24.1643 6.89841 24.1419 6.66367C24.1196 6.42894 24.013 6.20873 23.8401 6.04017C23.6673 5.87161 23.4387 5.76499 23.193 5.7383C22.9473 5.71161 22.6994 5.76647 22.4912 5.89363C22.2092 6.09468 21.9542 6.32798 21.7318 6.58829C21.4067 6.89021 21.0654 7.17584 20.7092 7.44402C20.3407 7.70817 19.9565 7.95427 19.5663 8.1894C19.1767 8.42727 18.7921 8.67514 18.3958 8.90264C18.0564 9.08956 17.7093 9.26683 17.3735 9.46307C17.0382 9.66165 16.7014 9.85862 16.3678 10.0589C16.3667 10.0331 16.3631 10.0072 16.3622 9.98142C16.36 9.76482 16.3695 9.54825 16.3905 9.33256Z" fill="#4A8B71"/>
<path d="M39.9332 45.3009C39.9368 45.3262 39.936 45.3511 39.9394 45.3762C39.9424 45.3971 39.9481 45.4174 39.951 45.4384C39.945 45.3915 39.9391 45.3476 39.9332 45.3009ZM0.575928 45.2216C0.582905 45.2063 0.592852 45.1927 0.599937 45.1774C0.61192 45.1508 0.619392 45.1228 0.631591 45.0962C0.613126 45.137 0.594393 45.1808 0.575928 45.2216ZM29.8067 43.4426C29.6484 42.9098 29.3797 42.4126 29.0165 41.9805C28.5985 41.5264 28.1246 41.122 27.6052 40.7759C26.9511 40.3848 26.2022 40.161 25.4309 40.1261C24.7529 40.1114 24.0793 40.2329 23.454 40.4829C23.1646 40.5839 22.8909 40.7216 22.6401 40.8922C22.5506 40.7927 22.4557 40.6972 22.3585 40.6038C22.0759 40.353 21.7541 40.1455 21.4046 39.9887C21.0444 39.7921 20.6448 39.6698 20.2318 39.63C19.5737 39.5698 18.9096 39.6284 18.2742 39.8026C17.7088 39.9597 17.1848 40.2294 16.7369 40.5938C16.3674 40.9144 16.0594 41.2938 15.8266 41.7152C15.4878 42.3449 15.411 43.0733 15.6115 43.7546C15.7044 44.0176 15.9023 44.235 16.1623 44.3598C16.4224 44.4846 16.7235 44.5067 17.0005 44.4212C17.2514 44.3386 17.4632 44.1735 17.598 43.9555C17.7328 43.7376 17.7818 43.481 17.7362 43.2318C17.7321 43.1907 17.7234 43.1508 17.7166 43.1103C17.7101 43.0494 17.7052 42.9886 17.7029 42.9276L17.7043 42.915C17.7095 42.8909 17.7157 42.8667 17.7221 42.8426C17.7414 42.7881 17.7627 42.7347 17.7854 42.6824C17.806 42.6419 17.8275 42.6015 17.8501 42.5616C17.8899 42.5039 17.9311 42.4473 17.9746 42.3919C18.0295 42.3289 18.0873 42.2691 18.1485 42.2108C18.1961 42.1685 18.2439 42.1274 18.2938 42.0884C18.3247 42.0685 18.3563 42.0492 18.3878 42.0306C18.4679 41.9909 18.5484 41.9542 18.6307 41.9202C18.7793 41.8635 18.931 41.8143 19.0851 41.773C19.1385 41.7624 19.1925 41.7536 19.246 41.746C19.3905 41.7338 19.535 41.7297 19.6811 41.7294C19.8173 41.7347 19.955 41.7426 20.0911 41.757L20.1083 41.7605C20.1547 41.777 20.2007 41.7945 20.2457 41.8131C20.3585 41.863 20.4676 41.9169 20.5746 41.9762C20.6422 42.0168 20.7077 42.059 20.7719 42.1031C20.8369 42.1564 20.8987 42.213 20.9603 42.2705C20.9851 42.2956 21.0096 42.3205 21.033 42.3462L21.0431 42.3656L21.055 42.4023C21.0651 42.4471 21.0739 42.4924 21.0811 42.5385C21.0915 42.6989 21.1138 42.8584 21.1478 43.0158C21.1852 43.2668 21.3078 43.4991 21.4969 43.6774C21.686 43.8556 21.9312 43.9698 22.195 44.0026C22.3673 44.0152 22.5405 43.9904 22.7013 43.9298C22.8621 43.8692 23.0063 43.7746 23.123 43.653C23.2078 43.5546 23.2832 43.4493 23.3484 43.3382C23.4168 43.2273 23.4819 43.1146 23.549 43.0029C23.5764 42.963 23.6062 42.9242 23.6364 42.8856C23.699 42.8161 23.7642 42.7483 23.8316 42.6838C23.8468 42.6707 23.8622 42.658 23.8782 42.6455C23.9349 42.6074 23.9932 42.5703 24.0522 42.535C24.1246 42.4972 24.199 42.4632 24.2752 42.4329C24.3933 42.3927 24.5127 42.358 24.6335 42.3266C24.8027 42.2901 24.972 42.2588 25.1413 42.2329L25.2035 42.2295C25.2677 42.2329 25.3318 42.2387 25.3958 42.2467C25.604 42.2805 25.8117 42.3237 26.0159 42.3763C26.073 42.3936 26.1292 42.4117 26.1847 42.4321C26.2226 42.4505 26.2606 42.4693 26.2985 42.4891C26.393 42.5478 26.4839 42.6101 26.5727 42.6764C26.8054 42.8593 27.031 43.0519 27.2447 43.2522C27.3095 43.3205 27.3718 43.3901 27.4323 43.4611C27.445 43.479 27.4574 43.4969 27.4696 43.5149C27.5146 43.601 27.5523 43.6905 27.5909 43.7795C27.6703 43.9665 27.7479 44.1569 27.8079 44.3503C27.8359 44.4731 27.8581 44.5961 27.8765 44.7204C27.919 45.1044 27.9375 45.4842 27.9474 45.8707C27.9438 46.0077 27.9687 46.1441 28.0206 46.2719C28.0725 46.3998 28.1504 46.5166 28.2499 46.6156C28.3493 46.7147 28.4683 46.794 28.6 46.8491C28.7317 46.9042 28.8735 46.934 29.0173 46.9367C29.0375 46.9368 29.0578 46.9363 29.0786 46.9353C29.3634 46.9184 29.6299 46.7959 29.8212 46.594C30.0124 46.3922 30.1132 46.1271 30.1019 45.8553L30.1005 45.8493C30.1496 45.0369 30.0502 44.2225 29.8067 43.4426ZM15.9004 45.1653C15.4252 44.7579 14.8577 44.4603 14.2422 44.2959C13.8953 44.1946 13.5271 44.1789 13.1721 44.2502C12.868 44.3194 12.5725 44.419 12.2905 44.5474C12.0514 44.6496 11.8263 44.7792 11.6201 44.9333C11.4253 45.0968 11.2489 45.279 11.0935 45.4771C10.6723 45.2604 10.2078 45.1294 9.73072 45.0927C9.25363 45.056 8.77375 45.1143 8.32154 45.2638C8.05518 45.352 7.79877 45.4654 7.55615 45.6024C7.24778 45.8006 6.98553 46.0571 6.78576 46.3561C6.51456 46.7137 6.30557 47.1105 6.16682 47.5314C5.92402 48.1362 5.92189 48.8047 6.16082 49.4109C6.25099 49.5877 6.39158 49.7367 6.56649 49.8409C6.74139 49.9451 6.94354 50.0002 7.1498 50C7.26512 50.0007 7.37978 49.9834 7.4892 49.9487C7.74012 49.8682 7.95225 49.7043 8.08679 49.4869C8.22132 49.2696 8.26928 49.0134 8.22189 48.7651C8.21348 48.7145 8.20233 48.6636 8.19219 48.6129L8.19015 48.5593C8.19422 48.503 8.20048 48.4472 8.20801 48.3909C8.2218 48.3212 8.23868 48.2518 8.25818 48.1833C8.28659 48.0975 8.31802 48.014 8.35451 47.9321C8.38726 47.8677 8.42105 47.8042 8.45714 47.7416C8.51656 47.6507 8.57968 47.5633 8.6465 47.4794C8.68205 47.4382 8.71847 47.3983 8.75574 47.3597L8.75716 47.3588C8.81272 47.3319 8.86893 47.3058 8.92624 47.2814C8.99866 47.2556 9.07159 47.2327 9.1456 47.213C9.19863 47.2012 9.25296 47.1907 9.30808 47.1821C9.35418 47.1783 9.40073 47.1756 9.44678 47.1738C9.49777 47.1769 9.54794 47.1812 9.59877 47.1864C9.66069 47.1979 9.7215 47.2109 9.7812 47.2254C9.84642 47.2455 9.9111 47.2674 9.97423 47.2928C10.0683 47.3367 10.16 47.3859 10.2513 47.4369C10.3492 47.4978 10.443 47.5626 10.5368 47.6324L10.5198 47.6192C10.6931 47.7595 10.8961 47.8626 11.115 47.9214C11.2723 47.9563 11.4354 47.9602 11.5943 47.9327C11.7532 47.9052 11.9045 47.847 12.0389 47.7617C12.292 47.5717 12.4933 47.3264 12.626 47.0467C12.6082 47.0751 12.5903 47.1024 12.5725 47.1298C12.5903 47.1013 12.6087 47.0731 12.627 47.0449L12.6467 47.0132L12.6282 47.0434C12.6969 46.9384 12.7697 46.8352 12.8468 46.7357C12.884 46.6938 12.9221 46.6522 12.9617 46.6123C12.9914 46.5858 13.0214 46.5596 13.0525 46.5343C13.0758 46.52 13.099 46.506 13.1226 46.4921C13.1856 46.4613 13.2495 46.4334 13.3136 46.4071C13.408 46.3749 13.5036 46.3464 13.6005 46.3204L13.6311 46.3139C13.6549 46.3189 13.6787 46.3242 13.7025 46.3298C13.785 46.3557 13.8666 46.3836 13.9477 46.4154C14.0216 46.4492 14.0939 46.4859 14.1658 46.5245C14.2303 46.5664 14.2928 46.6106 14.3547 46.6564C14.4731 46.7523 14.5851 46.8535 14.6949 46.9596C14.7666 47.0327 14.8366 47.108 14.9032 47.1859C14.923 47.2147 14.9424 47.2441 14.9615 47.2736C14.974 47.296 14.986 47.3186 14.9978 47.3415C15.0064 47.3647 15.0146 47.3881 15.0224 47.4116C15.0329 47.5306 15.0377 47.6508 15.0445 47.769C15.0582 48.0286 15.1749 48.2735 15.3709 48.4543C15.5669 48.6351 15.8276 48.7382 16.1003 48.7427C16.373 48.7472 16.6374 48.6529 16.8399 48.4788C17.0424 48.3047 17.168 48.0637 17.1912 47.8047C17.2266 47.4735 17.2001 47.1389 17.1131 46.8164C16.8849 46.1659 16.4636 45.5923 15.9004 45.1653Z" fill="#4A8B71"/>
</svg>
