<svg width="50" height="50" viewBox="0 0 50 50" fill="none" xmlns="http://www.w3.org/2000/svg">
<path d="M24.875 50C11.25 50 0 38.8191 0 25C0 11.1809 11.125 0 24.875 0C35.25 0 44.125 6.53266 47.75 16.7085L44.375 17.9648C41.25 9.17085 33.75 3.64322 24.875 3.64322C13.125 3.64322 3.625 13.191 3.625 25C3.625 36.809 13.125 46.3568 24.875 46.3568C33.125 46.3568 40.75 41.4573 44.25 33.9196L47.5 35.4271C43.5 44.3467 34.625 50 24.875 50Z" fill="#4A8B71"/>
<path d="M34.5 19.2211V15.3266H46.125V3.76886H50V19.2211H34.5Z" fill="#4A8B71"/>
</svg>
