<svg width="50" height="50" viewBox="0 0 50 50" fill="none" xmlns="http://www.w3.org/2000/svg">
<g clip-path="url(#clip0_5_214)">
<path d="M10.9124 2.54395H5.23672C4.26865 2.54395 3.48389 3.32871 3.48389 4.29678C3.48389 5.26484 4.26865 6.04961 5.23672 6.04961H10.9124C11.8805 6.04961 12.6652 5.26484 12.6652 4.29678C12.6652 3.32871 11.8805 2.54395 10.9124 2.54395Z" fill="#4A8B71"/>
<path d="M9.71497 6.04962H6.4342V29.5042H9.71497V6.04962Z" fill="#4A8B71"/>
<path d="M12.8877 26.3809H3.26141C2.99178 26.3809 2.77313 26.5995 2.77313 26.8691V34.7774C2.77313 37.7054 5.14667 40.0788 8.0745 40.0788C11.0023 40.0788 13.3759 37.7053 13.3759 34.7774V26.8691C13.376 26.5995 13.1573 26.3809 12.8877 26.3809Z" fill="#4A8B71"/>
<path d="M0.824709 46.0396L3.70791 39.7586C4.35205 38.3552 5.75469 37.4557 7.29883 37.4557H9.73457L15.897 25.8498C16.5825 24.5587 17.9249 23.7515 19.3867 23.7515H22.0951L25.0836 19.0889C25.8102 17.9554 27.0638 17.2699 28.4102 17.2699C29.9163 17.2699 31.2914 18.1261 31.956 19.4777L38.792 33.3815H40.6581C42.1827 33.3815 43.5713 34.2587 44.2262 35.6354L49.1694 46.0272C49.485 46.6904 49.0013 47.456 48.2669 47.456H1.73311C1.00459 47.456 0.520803 46.7017 0.824709 46.0396Z" fill="#DD7F66"/>
<path d="M34.2775 37.9819C33.9914 37.6959 33.5276 37.6958 33.2418 37.9818L31.877 39.3465H27.5729C27.3899 39.3465 27.2136 39.4149 27.0785 39.5386L25.1588 41.295C24.8603 41.5681 24.8397 42.0313 25.1128 42.3298C25.2572 42.4877 25.455 42.5679 25.6533 42.5679C25.8299 42.5679 26.007 42.5044 26.1475 42.3758L27.8574 40.8113H31.877L33.0355 41.9697C33.1728 42.107 33.3592 42.1842 33.5534 42.1842H37.9283C38.3329 42.1842 38.6607 41.8563 38.6607 41.4518C38.6607 41.0472 38.3329 40.7193 37.9283 40.7193H33.8567L33.2162 40.0788L34.2774 39.0177C34.5635 38.7317 34.5635 38.268 34.2775 37.9819ZM28.5043 24.2676C28.5043 24.6721 28.8322 25 29.2367 25C29.6412 25 29.9691 24.6721 29.9691 24.2676C29.9691 23.8631 29.6412 23.5352 29.2367 23.5352C28.8322 23.5352 28.5043 23.8631 28.5043 24.2676ZM22.129 30.8242C22.129 31.2287 22.4569 31.5566 22.8614 31.5566C23.2659 31.5566 23.5938 31.2287 23.5938 30.8242C23.5938 30.4197 23.2659 30.0918 22.8614 30.0918C22.4568 30.0918 22.129 30.4197 22.129 30.8242ZM11.569 41.8354C11.569 42.2398 11.897 42.5678 12.3015 42.5678C12.7059 42.5678 13.0339 42.2398 13.0339 41.8354C13.0339 41.4309 12.7059 41.1029 12.3015 41.1029C11.897 41.1029 11.569 41.4309 11.569 41.8354ZM40.3923 38.4998C40.3923 38.0953 40.0643 37.7674 39.6599 37.7674C39.2554 37.7674 38.9274 38.0953 38.9274 38.4998C38.9274 38.9043 39.2554 39.2322 39.6599 39.2322C40.0643 39.2322 40.3923 38.9043 40.3923 38.4998Z" fill="#4A8B71"/>
<path d="M49.8308 45.7128L44.8875 35.3209C44.1155 33.6979 42.4554 32.6491 40.658 32.6491H39.248L34.7221 23.444C34.5437 23.0811 34.105 22.9313 33.7416 23.1099C33.3786 23.2884 33.2291 23.7273 33.4075 24.0904L35.4056 28.1542H32.7074C32.487 28.1542 32.2783 28.2535 32.1393 28.4244L30.7829 30.0917H28.5042C28.0996 30.0917 27.7718 30.4195 27.7718 30.8241C27.7718 31.2287 28.0996 31.5565 28.5042 31.5565H31.1313C31.3517 31.5565 31.5604 31.4572 31.6994 31.2863L33.0558 29.619H36.1259L38.1347 33.7047C38.2579 33.9552 38.5128 34.1138 38.7919 34.1138H40.6579C41.8931 34.1138 43.034 34.8345 43.5647 35.95L48.5079 46.3419C48.5628 46.4575 48.5219 46.5527 48.4925 46.5992C48.4631 46.6458 48.3948 46.7236 48.2667 46.7236H1.73282C1.60577 46.7236 1.53751 46.6467 1.50802 46.6007C1.47853 46.5548 1.43712 46.4605 1.49005 46.3452L4.37335 40.064C4.8964 38.9244 6.04464 38.1881 7.29864 38.1881H9.73439C10.0054 38.1881 10.2542 38.0385 10.3813 37.7992L12.7417 33.3536H16.7922L18.156 34.7175C18.2933 34.8548 18.4796 34.9319 18.6738 34.9319H21.5989C22.0034 34.9319 22.3314 34.6041 22.3314 34.1995C22.3314 33.7949 22.0034 33.4671 21.5989 33.4671H18.9773L18.0985 32.5884L19.2224 31.307C19.4891 31.0029 19.4588 30.5401 19.1547 30.2734C18.8506 30.0066 18.3877 30.0369 18.1211 30.3411L16.7637 31.8887H13.5194L14.0184 30.9491C14.0194 30.9472 14.0204 30.9453 14.0214 30.9433L16.5437 26.193C17.1034 25.1387 18.1928 24.4839 19.3865 24.4839H22.0949C22.3445 24.4839 22.577 24.3567 22.7115 24.1467L25.7 19.4841C26.2947 18.5561 27.3078 18.0021 28.4099 18.0021C29.6461 18.0021 30.7529 18.6914 31.2985 19.8007L31.9788 21.1845C32.1572 21.5476 32.5964 21.6974 32.9592 21.5187C33.3223 21.3403 33.4718 20.9013 33.2934 20.5384L32.613 19.1544C31.8193 17.5401 30.2088 16.5373 28.4099 16.5373C26.8062 16.5373 25.332 17.3434 24.4667 18.6936L21.6943 23.019H19.3864C17.6494 23.019 16.0644 23.972 15.2498 25.5061L14.108 27.6565V26.869C14.108 26.1959 13.5605 25.6483 12.8873 25.6483H10.447V6.78181H10.912C12.2824 6.78181 13.3973 5.66697 13.3973 4.29656C13.3973 2.92625 12.2823 1.8114 10.912 1.8114H5.23644C3.86603 1.8114 2.75118 2.92625 2.75118 4.29666C2.75118 5.66697 3.86603 6.78181 5.23644 6.78181H5.70148V11.2702C5.70148 11.6748 6.02941 12.0026 6.4339 12.0026C6.83839 12.0026 7.16632 11.6748 7.16632 11.2702V6.78181H8.98224V25.6484H7.16632V14.4622C7.16632 14.0576 6.83839 13.7298 6.4339 13.7298C6.02941 13.7298 5.70148 14.0576 5.70148 14.4622V25.6484H3.26114C2.588 25.6484 2.04044 26.196 2.04044 26.8691V34.7774C2.04044 36.2129 2.56085 37.6042 3.48487 38.6899C3.31534 38.9273 3.16632 39.1821 3.042 39.453L0.1588 45.7342C-0.0885634 46.2729 -0.0451063 46.8925 0.274816 47.3916C0.594835 47.8906 1.13985 48.1885 1.73273 48.1885H48.2668C48.8645 48.1885 49.4119 47.8869 49.731 47.3815C50.0502 46.8763 50.0875 46.2524 49.8308 45.7128ZM4.21603 4.29656C4.21603 3.73396 4.67384 3.27625 5.23644 3.27625H10.9121C11.4748 3.27625 11.9325 3.73406 11.9325 4.29666C11.9325 4.85925 11.4747 5.31697 10.9121 5.31697H5.23644C4.67384 5.31697 4.21603 4.85925 4.21603 4.29656ZM3.50528 27.1134H7.34191V33.2299C7.34191 33.6344 7.66983 33.9623 8.07433 33.9623C8.47882 33.9623 8.80675 33.6344 8.80675 33.2299V27.1134H12.6433V30.4155L11.6582 32.2708C11.6575 32.272 11.6569 32.2732 11.6563 32.2745L9.29396 36.7234H7.29864C6.27921 36.7234 5.30802 37.0582 4.51642 37.6426C3.86105 36.8344 3.50538 35.8385 3.50538 34.7775L3.50528 27.1134Z" fill="#4A8B71"/>
</g>
<defs>
<clipPath id="clip0_5_214">
<rect width="50" height="50" fill="white"/>
</clipPath>
</defs>
</svg>
