<svg width="50" height="50" viewBox="0 0 50 50" fill="none" xmlns="http://www.w3.org/2000/svg">
<path opacity="0.5" d="M25.3968 0L26.1905 0.793651L0.793651 26.1905L0 25.3968L25.3968 0ZM26.9841 1.5873L27.7778 2.38095L2.38095 27.7778L1.5873 26.9841L26.9841 1.5873ZM28.5714 3.1746L29.3651 3.96825L3.96825 29.3651L3.1746 28.5714L28.5714 3.1746ZM30.1587 4.7619L30.9524 5.55556L5.55556 30.9524L4.7619 30.1587L30.1587 4.7619ZM31.746 6.34921L32.5397 7.14286L7.14286 32.5397L6.34921 31.746L31.746 6.34921ZM33.3333 7.93651L34.127 8.73016L8.73016 34.127L7.93651 33.3333L33.3333 7.93651ZM34.9206 9.52381L35.7143 10.3175L10.3175 35.7143L9.52381 34.9206L34.9206 9.52381ZM36.5079 11.1111L37.3016 11.9048L11.9048 37.3016L11.1111 36.5079L36.5079 11.1111ZM38.0952 12.6984L38.8889 13.4921L13.4921 38.8889L12.6984 38.0952L38.0952 12.6984ZM39.6825 14.2857L40.4762 15.0794L15.0794 40.4762L14.2857 39.6825L39.6825 14.2857ZM41.2698 15.873L42.0635 16.6667L16.6667 42.0635L15.873 41.2698L41.2698 15.873ZM42.8571 17.4603L43.6508 18.254L18.254 43.6508L17.4603 42.8571L42.8571 17.4603ZM44.4444 19.0476L45.2381 19.8413L19.8413 45.2381L19.0476 44.4444L44.4444 19.0476ZM46.0317 20.6349L46.8254 21.4286L21.4286 46.8254L20.6349 46.0317L46.0317 20.6349ZM47.619 22.2222L48.4127 23.0159L23.0159 48.4127L22.2222 47.619L47.619 22.2222ZM49.2063 23.8095L50 24.6032L24.6032 50L23.8095 49.2063L49.2063 23.8095Z" fill="#FF9900"/>
</svg>
