<svg width="17" height="18" viewBox="0 0 17 18" fill="none" xmlns="http://www.w3.org/2000/svg">
<g clip-path="url(#clip0_15_11)">
<path d="M0 12.3389V5.43687C0 4.85887 0.204 4.3602 0.612 3.94087C1.02 3.52153 1.52433 3.31187 2.125 3.31187H14.875C15.4757 3.31187 15.98 3.52153 16.388 3.94087C16.796 4.3602 17 4.85887 17 5.43687V12.3389C17 12.9395 16.796 13.4439 16.388 13.8519C15.98 14.2599 15.4757 14.4639 14.875 14.4639H2.125C1.52433 14.4639 1.02 14.2599 0.612 13.8519C0.204 13.4439 0 12.9395 0 12.3389ZM1.071 12.3389C1.071 12.6335 1.173 12.8829 1.377 13.0869C1.581 13.2909 1.83033 13.3985 2.125 13.4099H14.875C15.1583 13.4099 15.4077 13.3022 15.623 13.0869C15.8383 12.8715 15.9403 12.6222 15.929 12.3389L11.781 9.22787L9.469 10.9449C9.17433 11.1715 8.85133 11.2849 8.5 11.2849C8.14867 11.2849 7.82567 11.1715 7.531 10.9449L5.219 9.22787L1.071 12.3389ZM1.071 11.6759L4.777 8.88787L1.071 6.09987V11.6759ZM1.071 5.43687L5.219 8.56487L5.678 8.88787L7.871 10.5539C8.05233 10.6899 8.262 10.7579 8.5 10.7579C8.738 10.7579 8.94767 10.6899 9.129 10.5539L15.929 5.43687C15.929 5.15353 15.827 4.9042 15.623 4.68887C15.419 4.47353 15.1697 4.37153 14.875 4.38287H2.125C1.84167 4.38287 1.59233 4.48487 1.377 4.68887C1.16167 4.89287 1.05967 5.1422 1.071 5.43687ZM12.223 8.88787L15.929 11.6759V6.09987L12.223 8.88787Z" fill="white"/>
</g>
<defs>
<clipPath id="clip0_15_11">
<rect width="17" height="17" fill="white" transform="matrix(1 0 0 -1 0 17.6599)"/>
</clipPath>
</defs>
</svg>
