<svg width="18" height="21" viewBox="0 0 18 21" fill="none" xmlns="http://www.w3.org/2000/svg">
<g clip-path="url(#clip0_15_18)">
<path d="M3.05998 15.97H5.63998V8.23002H3.05998V15.97ZM5.81998 5.83002C5.80665 5.44335 5.66665 5.12335 5.39998 4.87002C5.13332 4.61669 4.79332 4.49002 4.37998 4.49002C3.96665 4.49002 3.61332 4.61669 3.31998 4.87002C3.02665 5.12335 2.88332 5.44335 2.88998 5.83002C2.89665 6.21669 3.03332 6.53669 3.29998 6.79002C3.56665 7.04335 3.91332 7.17002 4.33998 7.17002C4.77998 7.17002 5.13332 7.04335 5.39998 6.79002C5.66665 6.53669 5.80665 6.21669 5.81998 5.83002ZM12.34 15.97H14.92V11.53C14.92 10.3834 14.6466 9.51669 14.1 8.93002C13.5533 8.34335 12.84 8.05002 11.96 8.05002C10.9466 8.05002 10.1666 8.48335 9.61998 9.35002H9.63998V8.23002H7.05998C7.08665 8.72335 7.08665 11.3034 7.05998 15.97H9.63998V11.63C9.63998 11.35 9.66665 11.1434 9.71998 11.01C9.82665 10.7567 9.99332 10.5367 10.22 10.35C10.4466 10.1634 10.72 10.07 11.04 10.07C11.9066 10.07 12.34 10.6567 12.34 11.83V15.97ZM17.56 4.83002V15.55C17.56 16.43 17.2466 17.1834 16.62 17.81C15.9933 18.4367 15.2333 18.7567 14.34 18.77H3.63998C2.74665 18.77 1.98665 18.45 1.35998 17.81C0.733316 17.17 0.419983 16.4167 0.419983 15.55V4.83002C0.419983 3.95002 0.733316 3.19669 1.35998 2.57002C1.98665 1.94335 2.74665 1.62335 3.63998 1.61002H14.34C15.2333 1.61002 15.9933 1.93002 16.62 2.57002C17.2466 3.21002 17.56 3.96335 17.56 4.83002Z" fill="white"/>
</g>
<defs>
<clipPath id="clip0_15_18">
<rect width="17.14" height="20" fill="white" transform="matrix(1 0 0 -1 0.419983 20.1899)"/>
</clipPath>
</defs>
</svg>
