<svg width="13" height="18" viewBox="0 0 13 18" fill="none" xmlns="http://www.w3.org/2000/svg">
<g clip-path="url(#clip0_15_5)">
<path d="M0 6.96509C0 5.19709 0.617667 3.68975 1.853 2.44309C3.08833 1.19642 4.59567 0.578754 6.375 0.590088C8.15433 0.601419 9.66167 1.21909 10.897 2.44309C12.1323 3.66709 12.75 5.17442 12.75 6.96509C12.75 7.84909 12.5913 8.75575 12.274 9.68509C11.9567 10.6144 11.475 11.5551 10.829 12.5071C10.183 13.4591 9.61067 14.2581 9.112 14.9041C8.61333 15.5501 7.99 16.3038 7.242 17.1651C7.01533 17.4484 6.73767 17.5901 6.409 17.5901H6.341C6.01233 17.5901 5.73467 17.4484 5.508 17.1651C4.76 16.2924 4.13667 15.5388 3.638 14.9041C3.13933 14.2694 2.567 13.4704 1.921 12.5071C1.275 11.5438 0.793333 10.6031 0.476 9.68509C0.158667 8.76709 0 7.86042 0 6.96509ZM1.071 6.96509C1.071 7.78109 1.22967 8.63109 1.547 9.51509C1.86433 10.3991 2.346 11.3114 2.992 12.2521C3.638 13.1928 4.17633 13.9181 4.607 14.4281C5.03767 14.9381 5.60433 15.6181 6.307 16.4681H6.341C6.36367 16.4908 6.375 16.5134 6.375 16.5361L6.443 16.4681C7.14567 15.6408 7.71233 14.9608 8.143 14.4281C8.57367 13.8954 9.10633 13.1701 9.741 12.2521C10.3757 11.3341 10.863 10.4218 11.203 9.51509C11.543 8.60842 11.7073 7.75842 11.696 6.96509C11.696 5.50309 11.1747 4.25075 10.132 3.20809C9.08933 2.16542 7.837 1.64975 6.375 1.66109C4.913 1.67242 3.66067 2.18809 2.618 3.20809C1.57533 4.22809 1.05967 5.48042 1.071 6.96509ZM3.196 6.82909C3.196 5.94509 3.502 5.19142 4.114 4.56809C4.726 3.94475 5.47967 3.63875 6.375 3.65009C7.27033 3.66142 8.024 3.96742 8.636 4.56809C9.248 5.16875 9.55967 5.92242 9.571 6.82909C9.58233 7.73575 9.27067 8.48942 8.636 9.09009C8.00133 9.69075 7.24767 10.0024 6.375 10.0251C5.50233 10.0478 4.74867 9.73609 4.114 9.09009C3.47933 8.44409 3.17333 7.69042 3.196 6.82909ZM3.723 6.82909C3.723 7.56575 3.98367 8.19475 4.505 8.71609C5.02633 9.23742 5.64967 9.49242 6.375 9.48109C7.10033 9.46975 7.72367 9.21475 8.245 8.71609C8.76633 8.21742 9.027 7.58842 9.027 6.82909C9.027 6.06975 8.76633 5.44642 8.245 4.95909C7.72367 4.47175 7.10033 4.21109 6.375 4.17709C5.64967 4.14309 5.02633 4.40375 4.505 4.95909C3.98367 5.51442 3.723 6.13775 3.723 6.82909Z" fill="white"/>
</g>
<defs>
<clipPath id="clip0_15_5">
<rect width="12.75" height="17" fill="white" transform="matrix(1 0 0 -1 0 17.5901)"/>
</clipPath>
</defs>
</svg>
