<svg width="17" height="18" viewBox="0 0 17 18" fill="none" xmlns="http://www.w3.org/2000/svg">
<g clip-path="url(#clip0_15_8)">
<path d="M13.396 10.6431C13.056 10.2805 12.6565 10.0991 12.1975 10.0991C11.7385 10.0991 11.3277 10.2805 10.965 10.6431L9.82599 11.7821L9.55399 11.6291C9.34999 11.5271 9.23099 11.4648 9.19699 11.4421C8.13166 10.7508 7.14566 9.85545 6.23899 8.75612C5.79699 8.17812 5.47399 7.66812 5.26999 7.22612C5.54199 6.98812 5.81966 6.71612 6.10299 6.41012L6.40899 6.10412C6.78299 5.71878 6.96999 5.30228 6.96999 4.85462C6.96999 4.40695 6.78299 3.99612 6.40899 3.62212L5.42299 2.63612C5.27566 2.48878 5.16799 2.37545 5.09999 2.29612C4.72599 1.92212 4.49933 1.70112 4.41999 1.63312C4.06866 1.28178 3.67199 1.10612 3.22999 1.10612C2.78799 1.10612 2.37999 1.28178 2.00599 1.63312H1.98899L0.764992 2.87412C0.311659 3.32745 0.056659 3.88278 -7.63312e-06 4.54012C-0.079341 5.29945 0.073659 6.18345 0.458992 7.19212C0.742326 7.97412 1.10783 8.73912 1.55549 9.48712C2.00316 10.2351 2.54999 11.0001 3.19599 11.7821C4.78266 13.6635 6.65833 15.1311 8.82299 16.1851C9.99033 16.7405 11.0443 17.0521 11.985 17.1201H12.206C13.0447 17.1201 13.736 16.8255 14.28 16.2361V16.2191C14.3593 16.1171 14.4613 16.0038 14.586 15.8791C14.518 15.9471 14.6257 15.8395 14.909 15.5561C15.0563 15.4315 15.215 15.2785 15.385 15.0971C15.7477 14.7118 15.929 14.2925 15.929 13.8391C15.929 13.3858 15.742 12.9835 15.368 12.6321L13.396 10.6431ZM14.688 14.4341C14.6313 14.4908 14.5577 14.5645 14.467 14.6551L14.246 14.8761C13.9853 15.1141 13.753 15.3521 13.549 15.5901C13.209 15.9641 12.7613 16.1511 12.206 16.1511H12.036C11.2087 16.0945 10.2793 15.8168 9.24799 15.3181C7.19666 14.3208 5.42866 12.9381 3.94399 11.1701C3.33199 10.4335 2.81633 9.71662 2.39699 9.01962C1.97766 8.32262 1.63199 7.60578 1.35999 6.86912C1.18999 6.40445 1.07383 5.99362 1.01149 5.63662C0.949159 5.27962 0.934992 4.93678 0.968992 4.60812C1.00299 4.17745 1.16733 3.82612 1.46199 3.55412L2.68599 2.33012C2.85599 2.16012 3.03449 2.07512 3.22149 2.07512C3.40849 2.07512 3.58699 2.16012 3.75699 2.33012C3.84766 2.40945 3.95533 2.51712 4.07999 2.65312L4.57299 3.14612C4.64099 3.21412 4.69766 3.27078 4.74299 3.31612L5.72899 4.30212C6.10299 4.66478 6.10299 5.03312 5.72899 5.40712C5.66099 5.48645 5.55899 5.59412 5.42299 5.73012C5.02633 6.12678 4.72599 6.41578 4.52199 6.59712L4.50499 6.61412C4.27833 6.84078 4.21599 7.11278 4.31799 7.43012V7.46412C4.56733 8.05345 4.95833 8.68245 5.49099 9.35112C6.47699 10.5751 7.53666 11.5441 8.66999 12.2581L9.11199 12.4961C9.31599 12.5981 9.43499 12.6605 9.46899 12.6831L9.51999 12.7171C9.65599 12.7738 9.76933 12.8021 9.85999 12.8021C10.064 12.8021 10.251 12.7171 10.421 12.5471L11.645 11.3231C11.8263 11.1418 12.002 11.0511 12.172 11.0511C12.342 11.0511 12.5177 11.1418 12.699 11.3231L14.688 13.3121C15.0507 13.6635 15.0507 14.0375 14.688 14.4341ZM9.14599 4.16612C10.1093 4.32478 10.9338 4.74695 11.6195 5.43262C12.3052 6.11828 12.7387 6.94845 12.92 7.92312C12.9313 8.03645 12.9823 8.13278 13.073 8.21212C13.1637 8.29145 13.2713 8.33112 13.396 8.33112L13.481 8.31412C13.6057 8.29145 13.7077 8.22628 13.787 8.11862C13.8663 8.01095 13.8947 7.88912 13.872 7.75312C13.7813 7.18645 13.6028 6.64812 13.3365 6.13812C13.0702 5.62812 12.733 5.16912 12.325 4.76112C11.917 4.35312 11.4552 4.01595 10.9395 3.74962C10.4238 3.48328 9.88266 3.30478 9.31599 3.21412C9.19133 3.19145 9.07233 3.21695 8.95899 3.29062C8.84566 3.36428 8.77766 3.46912 8.75499 3.60512C8.73233 3.74112 8.75783 3.86295 8.83149 3.97062C8.90516 4.07828 9.00999 4.14345 9.14599 4.16612ZM16.949 7.61712C16.7903 6.67645 16.4928 5.78962 16.0565 4.95662C15.6202 4.12362 15.062 3.36712 14.382 2.68712C13.702 2.00712 12.9455 1.44895 12.1125 1.01262C11.2795 0.576283 10.3927 0.278784 9.45199 0.120117C9.32733 0.0974503 9.20833 0.125782 9.09499 0.205116C8.98166 0.284451 8.91366 0.389282 8.89099 0.519617C8.86833 0.64995 8.89666 0.771784 8.97599 0.885117C9.05533 0.998449 9.16299 1.06645 9.29899 1.08912C10.1263 1.22512 10.9168 1.48862 11.6705 1.87962C12.4242 2.27062 13.1042 2.76645 13.7105 3.36712C14.3168 3.96778 14.8127 4.64212 15.198 5.39012C15.5833 6.13812 15.8497 6.93145 15.997 7.77012C16.0083 7.88345 16.0593 7.97978 16.15 8.05912C16.2407 8.13845 16.3483 8.17812 16.473 8.17812H16.558C16.6827 8.15545 16.7847 8.08745 16.864 7.97412C16.9433 7.86078 16.9717 7.74178 16.949 7.61712Z" fill="white"/>
</g>
<defs>
<clipPath id="clip0_15_8">
<rect width="17" height="17" fill="white" transform="matrix(1 0 0 -1 0 17.1201)"/>
</clipPath>
</defs>
</svg>
