<svg width="20" height="21" viewBox="0 0 20 21" fill="none" xmlns="http://www.w3.org/2000/svg">
<g clip-path="url(#clip0_15_14)">
<path d="M18.3 4.74992C17.8067 5.46992 17.2067 6.08992 16.5 6.60992V7.06992C16.5 8.04326 16.36 9.00992 16.08 9.96992C15.8 10.9299 15.3733 11.8566 14.8 12.7499C14.2267 13.6433 13.54 14.4233 12.74 15.0899C11.94 15.7566 10.98 16.3033 9.86 16.7299C8.74 17.1566 7.53333 17.3566 6.24 17.3299C4.22667 17.3299 2.38667 16.7899 0.720001 15.7099C0.973335 15.7366 1.26 15.7499 1.58 15.7499C3.26 15.7499 4.75333 15.2366 6.06 14.2099C5.27333 14.1966 4.57333 13.9566 3.96 13.4899C3.34667 13.0233 2.92 12.4299 2.68 11.7099C2.93333 11.7499 3.16 11.7699 3.36 11.7699C3.68 11.7699 4 11.7299 4.32 11.6499C3.48 11.4766 2.78667 11.0633 2.24 10.4099C1.69333 9.75659 1.42 8.98992 1.42 8.10992V8.06992C1.92667 8.34992 2.47333 8.50326 3.06 8.52992C2.56667 8.19659 2.17333 7.76992 1.88 7.24992C1.58667 6.72992 1.44 6.14992 1.44 5.50992C1.44 4.86992 1.60667 4.26992 1.94 3.70992C2.84667 4.81659 3.94 5.70326 5.22 6.36992C6.5 7.03659 7.88667 7.40326 9.38 7.46992C9.31333 7.18992 9.28 6.91659 9.28 6.64992C9.28 5.64992 9.63333 4.80326 10.34 4.10992C11.0467 3.41659 11.8933 3.06326 12.88 3.04992C13.9333 3.04992 14.8133 3.42992 15.52 4.18992C16.3333 4.02992 17.1 3.73659 17.82 3.30992C17.54 4.16326 17.0067 4.82992 16.22 5.30992C16.9133 5.22992 17.6067 5.04326 18.3 4.74992Z" fill="white"/>
</g>
<defs>
<clipPath id="clip0_15_14">
<rect width="18.56" height="20" fill="white" transform="matrix(1 0 0 -1 0.720001 20.1899)"/>
</clipPath>
</defs>
</svg>
